HIERARCHY
ROOT Hips
{
    OFFSET 0.000000 0.000000 0.000000
    CHANNELS 6 Xposition Yposition Zposition Zrotation Xrotation Yrotation
    JOINT Ab
    {
        OFFSET -0.000000 8.084561 -0.000000
        CHANNELS 3 Zrotation Xrotation Yrotation
        JOINT Chest
        {
            OFFSET -0.000000 25.006802 -0.000000
            CHANNELS 3 Zrotation Xrotation Yrotation
            JOINT Neck
            {
                OFFSET -0.000000 25.006802 0.000000
                CHANNELS 3 Zrotation Xrotation Yrotation
                JOINT Head
                {
                    OFFSET -0.000000 10.755555 0.000000
                    CHANNELS 3 Zrotation Xrotation Yrotation
                    End Site
                    {
                        OFFSET -0.000000 16.622223 0.000000
                    }
                }
            }
            JOINT LeftCollar
            {
                OFFSET -0.000000 25.006802 0.000000
                CHANNELS 3 Zrotation Xrotation Yrotation
                JOINT LeftShoulder
                {
                    OFFSET 19.555553 -0.000000 0.000000
                    CHANNELS 3 Zrotation Xrotation Yrotation
                    JOINT LeftElbow
                    {
                        OFFSET 27.182800 0.000000 0.000000
                        CHANNELS 3 Zrotation Xrotation Yrotation
                        JOINT LeftWrist
                        {
                            OFFSET 23.315706 0.000000 0.000000
                            CHANNELS 3 Zrotation Xrotation Yrotation
                            End Site
                            {
                                OFFSET 0.000000 -14.666668 0.000000
                            }
                        }
                    }
                }
            }
            JOINT RightCollar
            {
                OFFSET -0.000000 25.006802 0.000000
                CHANNELS 3 Zrotation Xrotation Yrotation
                JOINT RightShoulder
                {
                    OFFSET -19.555553 0.000000 0.000000
                    CHANNELS 3 Zrotation Xrotation Yrotation
                    JOINT RightElbow
                    {
                        OFFSET -27.182800 0.000000 0.000000
                        CHANNELS 3 Zrotation Xrotation Yrotation
                        JOINT RightWrist
                        {
                            OFFSET -23.315706 0.000000 0.000000
                            CHANNELS 3 Zrotation Xrotation Yrotation
                            End Site
                            {
                                OFFSET -0.000000 -14.666668 0.000000
                            }
                        }
                    }
                }
            }
        }
    }
    JOINT LeftHip
    {
        OFFSET 11.733333 0.000000 0.000000
        CHANNELS 3 Zrotation Xrotation Yrotation
        JOINT LeftKnee
        {
            OFFSET -0.000000 -40.868771 0.000000
            CHANNELS 3 Zrotation Xrotation Yrotation
            JOINT LeftAnkle
            {
                OFFSET -0.000000 -44.433651 0.000000
                CHANNELS 3 Zrotation Xrotation Yrotation
                End Site
                {
                    OFFSET -0.000000 -4.888888 16.622223
                }
            }
        }
    }
    JOINT RightHip
    {
        OFFSET -11.733333 0.000000 0.000000
        CHANNELS 3 Zrotation Xrotation Yrotation
        JOINT RightKnee
        {
            OFFSET -0.000000 -40.868771 0.000000
            CHANNELS 3 Zrotation Xrotation Yrotation
            JOINT RightAnkle
            {
                OFFSET -0.000000 -44.433651 0.000000
                CHANNELS 3 Zrotation Xrotation Yrotation
                End Site
                {
                    OFFSET -0.000000 -4.888888 16.622223
                }
            }
        }
    }
}
MOTION
Frames:    8
Frame Time:    0.010000
4.89359900 76.10772700 -64.84267400 6.88170900 8.68541000 177.74072300 6.71152500 14.40576600 -1.97738200 8.18824000 12.76359700 -2.04176700 8.98618300 -17.88454600 5.12633400 -6.83076100 10.44879800 4.26923800 -19.42459100 -3.32396800 19.68658100 -63.31528500 36.63483400 13.82206700 11.57901000 -4.13795200 -47.68416200 103.92781800 -18.47145100 -9.60479600 24.59713400 -2.78201500 -12.79582800 27.59126100 53.67859600 50.17958100 -54.40247300 -23.83248100 42.59586000 -99.67912300 -23.82576200 8.76844200 9.02494000 -20.49997500 -6.27706200 -143.44451900 62.73968100 130.66325400 1.00539800 -16.56465700 24.00702300 6.88089400 -35.49887100 3.56862100 2.73087700 66.34456600 7.16679400 -3.02285100 -20.84407000 -22.06651300 
4.85148100 76.06389600 -67.14965100 6.22257300 8.81496400 177.49844400 5.93713300 14.45750000 -0.93830200 7.76471200 12.42101700 -1.03330500 8.50522600 -18.01974500 4.18372800 -6.47552400 10.67764300 3.35979300 -19.06754100 -3.36524200 20.75030500 -63.83976700 42.61163300 15.40298900 12.64469600 -5.45657400 -47.28237900 102.56577300 -17.89307000 -8.27577300 24.05847200 -2.72898900 -13.02491900 23.23179400 53.94493900 54.76783400 -56.99927900 -24.34956200 41.50263600 -99.26516000 -23.62263700 5.96364500 8.31722800 -23.80728700 -5.91393400 -141.60568200 63.65877900 129.45956400 1.38515300 -16.62060000 25.18788000 6.16379700 -34.62887600 3.16054800 2.58616400 67.94150500 7.53493800 -3.67804100 -22.39250800 -22.49243500 
4.85051300 76.11898000 -69.41766400 5.60520300 8.76504200 177.60936000 5.61931100 14.49180300 -0.44864700 6.79711700 11.62830600 -0.44910800 7.97901100 -18.12144500 3.30509400 -5.82570600 11.17265600 2.53189300 -18.38856300 -3.37226400 22.09307500 -64.82910900 48.87379100 17.37523300 14.20303400 -6.57609700 -47.01197400 102.45347600 -17.08509300 -5.76275200 23.64292700 -2.66332900 -12.58690500 21.55689800 54.23949800 56.13066900 -59.32661100 -25.22588700 41.81243500 -98.48822000 -22.65188200 4.30438200 7.62260000 -27.22979200 -5.78750200 -138.77459700 65.17903100 129.14103700 1.40896300 -16.50133300 24.70903000 5.35908500 -33.72637600 2.66114400 2.62276700 69.21184500 7.80313400 -3.89242700 -23.59885400 -23.02726900 
4.79731100 76.26729600 -71.69068900 5.06139400 8.43493900 177.50372300 5.27450800 14.15132000 0.17131700 5.85094900 10.96079300 0.26944900 7.40303100 -17.97589900 2.69692100 -5.15542000 11.57926200 2.00479800 -17.79752000 -3.44313100 23.52942500 -66.14438600 53.53702200 19.75246000 15.37265800 -7.18044700 -47.18442500 102.40789000 -15.94648300 -3.52522800 23.07306700 -2.48938100 -12.05622700 19.79996100 54.41314700 57.61225900 -60.54324300 -25.78650900 42.38373900 -98.70311000 -21.79276800 2.80100000 7.15534200 -30.42735300 -5.46615100 -134.38449100 67.07259400 124.14856000 2.39921100 -16.59765800 27.30375300 4.71965300 -32.87258900 2.45448300 2.41974300 70.12399300 8.66245100 -4.22915600 -24.83115000 -23.46151000 
4.73230300 76.50872800 -73.99634600 4.70182800 8.18084700 177.45121800 5.28441200 13.83564700 0.68662000 4.62207600 10.31066300 0.91695200 6.97721200 -17.80031200 2.07487100 -4.63040500 11.85259800 1.41604800 -16.83456200 -3.44551100 25.56172400 -68.95125600 60.14579000 22.87452100 18.13371800 -8.75895400 -46.54564300 102.25058000 -14.12544600 0.70110400 22.57863600 -2.41269700 -12.00803600 18.37373000 54.45132100 58.87165800 -61.28899000 -26.29653700 42.95463200 -98.14630100 -21.73830800 2.46804600 6.83794100 -33.20467000 -5.31511200 -127.42595700 69.38688700 119.83381700 3.53921000 -16.11169100 26.67712800 4.28978000 -31.68064900 1.84004000 0.77603800 70.60234800 9.88647000 -4.32270000 -25.78128400 -22.95015100 
4.68369000 76.82524100 -76.27294200 4.48314800 7.92645200 177.38217200 5.38943700 13.63734300 1.05180000 3.47079600 9.48458700 1.41265300 6.38497000 -17.46601700 1.55536000 -3.86505200 12.04079000 0.93570700 -15.84579200 -3.45525300 27.52024100 -73.67198200 65.90436600 27.84683400 21.03312900 -10.03906700 -45.43193100 102.41790800 -12.92774100 4.74238800 22.18087600 -2.34840100 -12.00499800 17.08595500 54.28166200 59.81404500 -61.12859000 -26.55815100 43.95606600 -97.72373200 -21.19605300 2.06541300 6.83342300 -35.55001400 -5.18122300 -137.95289600 67.48841100 129.30532800 69.47648600 19.55456000 48.65584600 4.11301900 -30.26961300 1.17028100 -1.49038100 70.63462800 12.55744200 -3.97282400 -27.22666900 -23.39546000 
4.63082900 77.23631300 -78.59584000 4.29289800 7.87702900 177.15095500 5.31622800 13.27492000 1.46940200 2.50107300 9.34600700 1.88861700 5.93088100 -17.26470000 1.23876300 -3.27371400 12.09959800 0.65783600 -15.07817900 -3.51998700 29.13268100 -78.30626700 69.22808100 32.82652700 23.16742300 -10.69270000 -44.89860900 102.59928900 -11.67963200 7.94783500 21.70780400 -2.28337500 -11.89642500 15.68566500 53.84747700 61.02002700 -60.35736100 -26.58058700 44.90308000 -97.48348200 -20.72004100 1.73656300 6.69032800 -37.45758800 -4.58504700 -105.76949300 73.85794100 99.16532900 2.69135700 -17.89734300 27.23190300 4.08231700 -28.43738000 1.09671300 -2.91238600 70.36785100 14.19087800 -3.87092100 -27.99387200 -23.56597100 
4.49585000 77.71205900 -80.94078100 3.86061700 7.93550500 177.05229200 5.19520300 12.86320000 1.62137000 1.52737200 9.46175100 2.08035100 4.98864100 -17.16173900 0.93000700 -2.27010800 12.18625900 0.41379500 -14.47759100 -3.59591800 30.43817900 -83.47290000 71.51940900 38.26068900 25.01929700 -11.20927400 -44.28762400 102.49173000 -10.49663800 10.86740900 21.17379600 -2.13796200 -11.48652000 15.48404100 53.62694500 60.73839600 -59.53910400 -26.80130000 46.16828200 -96.96554600 -19.77172500 1.98291000 6.22785300 -38.74985900 -4.45116800 -87.56775700 74.99000500 82.16912800 3.68505200 -17.01593000 27.65657800 3.63494500 -26.30860500 1.22779300 -3.22140200 69.64279200 14.11160900 -3.57091700 -28.95734800 -23.32011400 
